<svg width="15" height="17" viewBox="0 0 15 17" fill="none" xmlns="http://www.w3.org/2000/svg">
<path d="M13.3333 0C13.7754 0 14.1993 0.17388 14.5118 0.483387C14.8244 0.792895 15 1.21268 15 1.65039V11.5527C15 11.9904 14.8244 12.4102 14.5118 12.7197C14.1993 13.0292 13.7754 13.2031 13.3333 13.2031H11.6667V14.8535C11.6667 15.2912 11.4911 15.711 11.1785 16.0205C10.8659 16.33 10.442 16.5039 10 16.5039H1.66667C1.22464 16.5039 0.800716 16.33 0.488155 16.0205C0.175595 15.711 0 15.2912 0 14.8535V4.95116C0 4.51345 0.175595 4.09367 0.488155 3.78416C0.800716 3.47466 1.22464 3.30078 1.66667 3.30078H3.33333V1.65039C3.33333 1.21268 3.50893 0.792895 3.82149 0.483387C4.13405 0.17388 4.55797 0 5 0H13.3333ZM10 4.95116H1.66667V14.8535H10V4.95116ZM5.83333 10.7275C6.05435 10.7275 6.26631 10.8145 6.42259 10.9692C6.57887 11.124 6.66667 11.3339 6.66667 11.5527C6.66667 11.7716 6.57887 11.9815 6.42259 12.1362C6.26631 12.291 6.05435 12.3779 5.83333 12.3779H4.16667C3.94565 12.3779 3.73369 12.291 3.57741 12.1362C3.42113 11.9815 3.33333 11.7716 3.33333 11.5527C3.33333 11.3339 3.42113 11.124 3.57741 10.9692C3.73369 10.8145 3.94565 10.7275 4.16667 10.7275H5.83333ZM13.3333 1.65039H5V3.30078H10C10.442 3.30078 10.8659 3.47466 11.1785 3.78416C11.4911 4.09367 11.6667 4.51345 11.6667 4.95116V11.5527H13.3333V1.65039ZM7.5 7.42674C7.7124 7.42698 7.91669 7.50751 8.07114 7.6519C8.22559 7.79628 8.31853 7.99361 8.33098 8.20358C8.34342 8.41354 8.27444 8.62029 8.13811 8.78158C8.00179 8.94286 7.80841 9.04652 7.5975 9.07136L7.5 9.07713H4.16667C3.95427 9.0769 3.74997 8.99636 3.59553 8.85198C3.44108 8.7076 3.34814 8.51026 3.33569 8.3003C3.32324 8.09034 3.39223 7.88359 3.52855 7.7223C3.66488 7.56102 3.85825 7.45736 4.06917 7.43252L4.16667 7.42674H7.5Z" fill="black"/>
</svg>
