<svg width="10" height="9" viewBox="0 0 10 9" fill="none" xmlns="http://www.w3.org/2000/svg">
<path fill-rule="evenodd" clip-rule="evenodd" d="M6.77843 0.435026C7.07452 0.156479 7.47606 0 7.89474 0C8.31342 0 8.71496 0.156479 9.01105 0.435026L9.10164 0.520264C9.39764 0.798895 9.56399 1.1768 9.56399 1.57079C9.56399 1.96477 9.3977 2.34263 9.10169 2.62126L8.27457 3.39959C8.27205 3.40207 8.26949 3.40452 8.2669 3.40696C8.26431 3.4094 8.2617 3.4118 8.25907 3.41418L3.00375 8.35952C2.9363 8.42299 2.85178 8.46802 2.75924 8.48979L0.653977 8.98506C0.474622 9.02726 0.284892 8.9778 0.154165 8.85479C0.023439 8.73177 -0.0291131 8.55324 0.0157256 8.38446L0.542041 6.40338C0.565177 6.31629 0.613029 6.23676 0.680481 6.17329L6.77843 0.435026ZM7.89466 2.35626L7.06004 1.57086L7.52263 1.13555L8.35726 1.22063C8.45589 1.3135 8.51136 1.43949 8.51136 1.57079C8.51136 1.70209 8.45595 1.82802 8.35731 1.92089L7.89466 2.35626ZM7.52263 1.13555C7.62133 1.04273 7.75521 0.990542 7.89474 0.990542C8.03427 0.990542 8.1681 1.04268 8.26679 1.1355L7.52263 1.13555Z" fill="#8A8A8A"/>
<path d="M5.26316 8.00946C4.97249 8.00946 4.73685 8.2312 4.73685 8.50473C4.73685 8.77826 4.97249 9 5.26316 9H9.47369C9.76436 9 10 8.77826 10 8.50473C10 8.2312 9.76436 8.00946 9.47369 8.00946H5.26316Z" fill="#8A8A8A"/>
</svg>
