<svg width="5" height="16" viewBox="0 0 5 16" fill="none" xmlns="http://www.w3.org/2000/svg">
<path d="M2.52177 4C3.6696 4 4.60873 3.1 4.60873 2C4.60873 0.9 3.6696 0 2.52177 0C1.37394 0 0.434814 0.9 0.434814 2C0.434814 3.1 1.37394 4 2.52177 4ZM2.52177 6C1.37394 6 0.434814 6.9 0.434814 8C0.434814 9.1 1.37394 10 2.52177 10C3.6696 10 4.60873 9.1 4.60873 8C4.60873 6.9 3.6696 6 2.52177 6ZM2.52177 12C1.37394 12 0.434814 12.9 0.434814 14C0.434814 15.1 1.37394 16 2.52177 16C3.6696 16 4.60873 15.1 4.60873 14C4.60873 12.9 3.6696 12 2.52177 12Z" fill="white"/>
</svg>
