<svg width="20" height="20" viewBox="0 0 20 20" fill="none" xmlns="http://www.w3.org/2000/svg">
<path d="M14 10H16V14H14V10Z" fill="#0F0F0F"/>
<path d="M18 5V3C18 1.897 17.103 1 16 1H3C1.346 1 0 2.346 0 4V16C0 18.201 1.794 19 3 19H18C19.103 19 20 18.103 20 17V7C20 5.897 19.103 5 18 5ZM3 3H16V5H3C2.74252 4.98848 2.49941 4.87809 2.32128 4.69182C2.14315 4.50554 2.04373 4.25774 2.04373 4C2.04373 3.74226 2.14315 3.49446 2.32128 3.30818C2.49941 3.12191 2.74252 3.01152 3 3ZM18 17H3.012C2.55 16.988 2 16.805 2 16V6.815C2.314 6.928 2.647 7 3 7H18V17Z" fill="#0F0F0F"/>
</svg>
