<svg width="343" height="186" viewBox="0 0 343 186" fill="none" xmlns="http://www.w3.org/2000/svg">
<g clip-path="url(#clip0_4_327)">
<rect y="52.5706" width="4" height="80.0873" fill="#00C922"/>
<path d="M2.0003 31.0845V138.163" stroke="#00C922" stroke-linecap="round"/>
<rect x="14" y="23.5692" width="4" height="56.4795" fill="#00C922"/>
<path d="M16.0003 21.6218V87.6639" stroke="#00C922" stroke-linecap="round"/>
<rect x="35" y="101.844" width="4" height="19.491" fill="#00C922"/>
<path d="M37.0003 80.405V130.476" stroke="#00C922" stroke-linecap="round"/>
<rect x="49" y="162.29" width="4" height="13.7594" fill="#00C922"/>
<path d="M51.0003 144.598V185.938" stroke="#00C922" stroke-linecap="round"/>
<rect x="56" y="115.481" width="4" height="53.0722" fill="#00C922"/>
<path d="M58.0003 113.516V177.025" stroke="#00C922" stroke-linecap="round"/>
<rect x="63" y="101.559" width="4" height="13.7781" fill="#00C922"/>
<path d="M65.0003 85.8132V129.489" stroke="#00C922" stroke-linecap="round"/>
<rect x="70" y="70.4089" width="4" height="33.1473" fill="#00C922"/>
<path d="M72.0003 56.7605V124.549" stroke="#00C922" stroke-linecap="round"/>
<rect x="77.0002" y="48.6783" width="4" height="25.4107" fill="#00C922"/>
<path d="M79.0003 31.0847V84.6599" stroke="#00C922" stroke-linecap="round"/>
<rect x="105" y="95.8447" width="4" height="7.79639" fill="#00C922"/>
<path d="M107 76.3542V125.795" stroke="#00C922" stroke-linecap="round"/>
<rect x="7" y="46.8484" width="4" height="33.1837" fill="#DD0606"/>
<path d="M9.0003 0.000701904V87.0072" stroke="#DD0606" stroke-linecap="round"/>
<rect x="21" y="23.8054" width="4" height="60.5434" fill="#DD0606"/>
<path d="M23.0003 10.1335V150.915" stroke="#DD0606" stroke-linecap="round"/>
<rect x="28" y="79.9695" width="4" height="60.5621" fill="#DD0606"/>
<path d="M30.0003 68.2468V156.905" stroke="#DD0606" stroke-linecap="round"/>
<rect x="42" y="103.382" width="4" height="72.6756" fill="#DD0606"/>
<path d="M44.0003 103.382V186.001" stroke="#DD0606" stroke-linecap="round"/>
<rect x="84" y="49.1413" width="4" height="21.622" fill="#DD0606"/>
<path d="M86.0003 43.2448V85.2658" stroke="#DD0606" stroke-linecap="round"/>
<rect x="91" y="68.4695" width="4" height="3.87394" fill="#DD0606"/>
<path d="M93.0003 58.7859V87.0915" stroke="#DD0606" stroke-linecap="round"/>
<rect x="98" y="68.6628" width="4" height="31.4034" fill="#DD0606"/>
<path d="M100 60.8113V101.047" stroke="#DD0606" stroke-linecap="round"/>
<rect x="112" y="95.7976" width="4" height="42.9437" fill="#DD0606"/>
<path d="M114 74.3269C114 78.4174 114 143.684 114 143.684" stroke="#DD0606" stroke-linecap="round"/>
<rect x="119" y="136.686" width="4" height="3.89514" fill="#DD0606"/>
<path d="M121 125.001V157.166" stroke="#DD0606" stroke-linecap="round"/>
<rect x="252" y="52.5699" width="4.12632" height="80.0873" fill="#00C922"/>
<path d="M254.064 31.0838V138.162" stroke="#00C922" stroke-linecap="round"/>
<rect x="266.442" y="23.5685" width="4.12632" height="56.4795" fill="#00C922"/>
<path d="M268.506 21.6211V87.6632" stroke="#00C922" stroke-linecap="round"/>
<rect x="288.105" y="101.844" width="4.12632" height="19.491" fill="#00C922"/>
<path d="M290.169 80.4043V130.476" stroke="#00C922" stroke-linecap="round"/>
<rect x="302.547" y="162.289" width="4.12632" height="13.7594" fill="#00C922"/>
<path d="M304.611 144.598V185.938" stroke="#00C922" stroke-linecap="round"/>
<rect x="309.768" y="115.48" width="4.12632" height="53.0722" fill="#00C922"/>
<path d="M311.832 113.516V177.024" stroke="#00C922" stroke-linecap="round"/>
<rect x="316.99" y="101.559" width="4.12632" height="13.7781" fill="#00C922"/>
<path d="M319.053 85.8125V129.488" stroke="#00C922" stroke-linecap="round"/>
<rect x="324.21" y="70.4081" width="4.12632" height="33.1473" fill="#00C922"/>
<path d="M326.274 56.7598V124.548" stroke="#00C922" stroke-linecap="round"/>
<rect x="331.432" y="48.6777" width="4.12632" height="25.4107" fill="#00C922"/>
<path d="M333.495 31.084V84.6592" stroke="#00C922" stroke-linecap="round"/>
<rect x="259.221" y="46.8477" width="4.12632" height="33.1837" fill="#DD0606"/>
<path d="M261.284 0V87.0065" stroke="#DD0606" stroke-linecap="round"/>
<rect x="273.663" y="23.8047" width="4.12632" height="60.5434" fill="#DD0606"/>
<path d="M275.727 10.1328V150.914" stroke="#DD0606" stroke-linecap="round"/>
<rect x="280.884" y="79.9688" width="4.12632" height="60.5621" fill="#DD0606"/>
<path d="M282.948 68.2461V156.904" stroke="#DD0606" stroke-linecap="round"/>
<rect x="295.326" y="103.381" width="4.12632" height="72.6756" fill="#DD0606"/>
<path d="M297.39 103.381V186.001" stroke="#DD0606" stroke-linecap="round"/>
<rect x="338.653" y="49.1406" width="4.12632" height="21.622" fill="#DD0606"/>
<path d="M340.716 43.2441V85.2651" stroke="#DD0606" stroke-linecap="round"/>
<rect width="4" height="80.0873" transform="matrix(1 0 0 -1 125 133.431)" fill="#00C922"/>
<path d="M127 154.917V47.8386" stroke="#00C922" stroke-linecap="round"/>
<rect width="4" height="56.4795" transform="matrix(1 0 0 -1 139 162.432)" fill="#00C922"/>
<path d="M141 164.38V98.3376" stroke="#00C922" stroke-linecap="round"/>
<rect width="4" height="19.491" transform="matrix(1 0 0 -1 160 84.157)" fill="#00C922"/>
<path d="M162 105.596V55.5252" stroke="#00C922" stroke-linecap="round"/>
<rect width="4" height="13.7594" transform="matrix(1 0 0 -1 174 23.7117)" fill="#00C922"/>
<path d="M176 41.4031V0.063117" stroke="#00C922" stroke-linecap="round"/>
<rect width="4" height="53.0722" transform="matrix(1 0 0 -1 181 70.5203)" fill="#00C922"/>
<path d="M183 72.4851V8.97681" stroke="#00C922" stroke-linecap="round"/>
<rect width="4" height="13.7781" transform="matrix(1 0 0 -1 188 84.4421)" fill="#00C922"/>
<path d="M190 100.188V56.5126" stroke="#00C922" stroke-linecap="round"/>
<rect width="4" height="33.1473" transform="matrix(1 0 0 -1 195 115.593)" fill="#00C922"/>
<path d="M197 129.241V61.4526" stroke="#00C922" stroke-linecap="round"/>
<rect width="4" height="25.4107" transform="matrix(1 0 0 -1 202 137.323)" fill="#00C922"/>
<path d="M204 154.917V101.342" stroke="#00C922" stroke-linecap="round"/>
<rect width="4" height="7.79639" transform="matrix(1 0 0 -1 230 90.1567)" fill="#00C922"/>
<path d="M232 109.647V60.2065" stroke="#00C922" stroke-linecap="round"/>
<rect width="4" height="33.1837" transform="matrix(1 0 0 -1 132 139.153)" fill="#DD0606"/>
<path d="M134 186.001V98.9942" stroke="#DD0606" stroke-linecap="round"/>
<rect width="4" height="60.5434" transform="matrix(1 0 0 -1 146 162.196)" fill="#DD0606"/>
<path d="M148 175.868V35.0868" stroke="#DD0606" stroke-linecap="round"/>
<rect width="4" height="60.5621" transform="matrix(1 0 0 -1 153 106.032)" fill="#DD0606"/>
<path d="M155 117.755V29.0968" stroke="#DD0606" stroke-linecap="round"/>
<rect width="4" height="72.6756" transform="matrix(1 0 0 -1 167 82.6199)" fill="#DD0606"/>
<path d="M169 82.6199V3.81388e-05" stroke="#DD0606" stroke-linecap="round"/>
<rect width="4" height="21.622" transform="matrix(1 0 0 -1 209 136.86)" fill="#DD0606"/>
<path d="M211 142.757V100.736" stroke="#DD0606" stroke-linecap="round"/>
<rect width="4" height="3.87394" transform="matrix(1 0 0 -1 216 117.532)" fill="#DD0606"/>
<path d="M218 127.216V98.91" stroke="#DD0606" stroke-linecap="round"/>
<rect width="4" height="31.4034" transform="matrix(1 0 0 -1 223 117.339)" fill="#DD0606"/>
<path d="M225 125.19V84.9546" stroke="#DD0606" stroke-linecap="round"/>
<rect width="4" height="42.9437" transform="matrix(1 0 0 -1 237 90.2039)" fill="#DD0606"/>
<path d="M239 111.675C239 107.584 239 42.3179 239 42.3179" stroke="#DD0606" stroke-linecap="round"/>
<rect width="4" height="3.89514" transform="matrix(1 0 0 -1 244 49.3152)" fill="#DD0606"/>
<path d="M246 61.0007V28.8358" stroke="#DD0606" stroke-linecap="round"/>
</g>
<defs>
<clipPath id="clip0_4_327">
<rect width="343" height="186" fill="white"/>
</clipPath>
</defs>
</svg>
